<svg height="372pt" viewBox="0 0 372 372" width="372pt" xmlns="http://www.w3.org/2000/svg">
<path d="m286 311h-200c0-55.226562 44.773438-100 100-100s100 44.773438 100 100zm0 0" fill="#eee7d8"/>
<path d="m186 61c30.679688.003906 55.550781 24.875 55.550781 55.558594 0 30.679687-24.875 55.550781-55.554687 55.550781-30.679688 0-55.554688-24.867187-55.554688-55.550781s24.875-55.558594 55.558594-55.558594zm0 0" fill="#eee7d8"/>
<g fill="#5699d2">
<path d="m6 103.070312c-3.3125 0-6-2.6875-6-6v-91.070312c0-3.3125 2.6875-6 6-6h91.070312c3.3125 0 6 2.6875 6 6s-2.6875 6-6 6h-85.070312v85.070312c0 3.3125-2.6875 6-6 6zm0 0"/>
<path d="m97.070312 372h-91.070312c-3.3125 0-6-2.6875-6-6v-91.070312c0-3.3125 2.6875-6 6-6s6 2.6875 6 6v85.070312h85.070312c3.3125 0 6 2.6875 6 6s-2.6875 6-6 6zm0 0"/>
<path d="m366 372h-91.070312c-3.3125 0-6-2.6875-6-6s2.6875-6 6-6h85.070312v-85.070312c0-3.3125 2.6875-6 6-6s6 2.6875 6 6v91.070312c0 3.3125-2.6875 6-6 6zm0 0"/>
<path d="m366 103.070312c-3.3125 0-6-2.6875-6-6v-85.070312h-85.070312c-3.3125 0-6-2.6875-6-6s2.6875-6 6-6h91.070312c3.3125 0 6 2.6875 6 6v91.070312c0 3.3125-2.6875 6-6 6zm0 0"/>
</g>
</svg>